<svg width="24" height="24" viewBox="0 0 24 24" fill="none" xmlns="http://www.w3.org/2000/svg">
<path d="M16.0018 1.99609L14.001 3.99693L16.0018 5.99776" stroke="#323232" stroke-width="1.5" stroke-linecap="round" stroke-linejoin="round"/>
<path d="M20.0035 3.99679H14.001" stroke="#323232" stroke-width="1.5" stroke-linecap="round" stroke-linejoin="round"/>
<path d="M21.004 12.0002C21.0031 10.6109 20.6789 9.24087 20.057 7.99854" stroke="#323232" stroke-width="1.5" stroke-linecap="round" stroke-linejoin="round"/>
<path d="M9.99901 3.22705C5.90394 4.1596 2.99796 7.80008 2.99609 12" stroke="#323232" stroke-width="1.5" stroke-linecap="round" stroke-linejoin="round"/>
<path d="M7.99805 22.0041L9.99888 20.0033L7.99805 18.0024" stroke="#323232" stroke-width="1.5" stroke-linecap="round" stroke-linejoin="round"/>
<path d="M3.99707 20.0036H9.99957" stroke="#323232" stroke-width="1.5" stroke-linecap="round" stroke-linejoin="round"/>
<path d="M2.99644 12C2.9973 13.3893 3.32151 14.7593 3.94343 16.0017" stroke="#323232" stroke-width="1.5" stroke-linecap="round" stroke-linejoin="round"/>
<path d="M14.001 20.7729C18.0961 19.8404 21.002 16.1999 21.0039 12" stroke="#323232" stroke-width="1.5" stroke-linecap="round" stroke-linejoin="round"/>
<path fill-rule="evenodd" clip-rule="evenodd" d="M13.0603 8.43793L15.5617 10.9386C15.8432 11.22 16.0014 11.6016 16.0014 11.9996C16.0014 12.3976 15.8434 12.7794 15.562 13.0608L13.0613 15.5622C12.78 15.8437 12.3983 16.0019 12.0003 16.0019C11.6023 16.0019 11.2206 15.8439 10.9391 15.5625L8.43774 13.0618C8.15627 12.7805 7.99805 12.3988 7.99805 12.0008C7.99805 11.6028 8.15605 11.2211 8.43744 10.9396L10.9381 8.43823C11.2195 8.15675 11.6012 7.99854 11.9992 7.99854C12.3972 7.99854 12.7789 8.15653 13.0603 8.43793V8.43793Z" stroke="#323232" stroke-width="1.5" stroke-linecap="round" stroke-linejoin="round"/>
</svg>
