<svg width="24" height="24" viewBox="0 0 24 24" fill="none" xmlns="http://www.w3.org/2000/svg">
<path d="M11.999 2.52588L11.999 8.52588" stroke="#323232" stroke-width="2" stroke-linecap="round" stroke-linejoin="round"/>
<path d="M11.999 12.6411C12.069 12.6411 12.124 12.5861 12.124 12.5161C12.124 12.4461 12.069 12.3911 11.999 12.3911C11.929 12.3911 11.874 12.4461 11.874 12.5161C11.874 12.5861 11.929 12.6411 11.999 12.6411" stroke="#323232" stroke-width="2" stroke-linecap="round" stroke-linejoin="round"/>
<path d="M11.999 16.626C12.069 16.626 12.124 16.571 12.124 16.501C12.124 16.431 12.069 16.376 11.999 16.376C11.929 16.376 11.874 16.431 11.874 16.501C11.874 16.571 11.929 16.626 11.999 16.626" stroke="#323232" stroke-width="2" stroke-linecap="round" stroke-linejoin="round"/>
<path d="M20 21H4" stroke="#323232" stroke-width="2" stroke-linecap="round" stroke-linejoin="round"/>
<path d="M7.999 6.52588L12 2.52488L16 6.52588" stroke="#323232" stroke-width="2" stroke-linecap="round" stroke-linejoin="round"/>
</svg>
