<svg width="24" height="24" viewBox="0 0 24 24" fill="none" xmlns="http://www.w3.org/2000/svg">
<path d="M9.68457 9.68482C9.92159 8.66326 10.852 7.95496 11.8998 7.99844C13.0725 7.93349 14.0778 8.82709 14.1508 9.99928C14.1508 11.5038 11.9999 12.0001 11.9999 13.0005" stroke="#323232" stroke-width="1.5" stroke-linecap="round" stroke-linejoin="round"/>
<path d="M12.1253 15.7518C12.1252 15.8209 12.0692 15.8768 12.0002 15.8767C11.9311 15.8767 11.8752 15.8207 11.8752 15.7517C11.8751 15.6827 11.931 15.6267 12 15.6266C12.0333 15.6266 12.0651 15.6398 12.0886 15.6632C12.1121 15.6867 12.1253 15.7186 12.1253 15.7518" stroke="#323232" stroke-width="1.5" stroke-linecap="round" stroke-linejoin="round"/>
<path fill-rule="evenodd" clip-rule="evenodd" d="M4.62861 17.1605C1.94551 13.3308 2.63502 8.08546 6.21672 5.07926C9.79842 2.07305 15.0839 2.30347 18.3903 5.60997C21.6968 8.91646 21.9273 14.2019 18.9211 17.7836C15.9149 21.3653 10.6695 22.0548 6.8398 19.3717L3.99688 20.0034L4.62861 17.1605Z" stroke="#323232" stroke-width="1.5" stroke-linecap="round" stroke-linejoin="round"/>
</svg>
