<svg width="24" height="24" viewBox="0 0 24 24" fill="none" xmlns="http://www.w3.org/2000/svg">
<path d="M14.5582 13.5577C13.9186 14.6361 12.6764 15.2036 11.4426 14.9811C10.2087 14.7585 9.24301 13.7928 9.02048 12.559C8.79795 11.3251 9.36544 10.0829 10.4438 9.44336" stroke="#151625" stroke-width="1.5" stroke-linecap="round" stroke-linejoin="round"/>
<path d="M17.9964 16.9961C16.2716 18.3043 14.1646 19.0094 11.9998 19.0028C8.41273 19.0667 5.09837 17.0953 3.44226 13.9127C2.84737 12.7069 2.84737 11.2929 3.44226 10.0871C4.27051 8.43773 5.59081 7.08646 7.22056 6.22021" stroke="#151625" stroke-width="1.5" stroke-linecap="round" stroke-linejoin="round"/>
<path d="M20.4277 14.1345C20.4679 14.0585 20.5201 13.9903 20.558 13.9128C21.1529 12.707 21.1529 11.293 20.558 10.0872C18.9019 6.90465 15.5876 4.93323 12.0005 4.99711C11.7756 4.99711 11.557 5.02712 11.335 5.04175" stroke="#151625" stroke-width="1.5" stroke-linecap="round" stroke-linejoin="round"/>
<path d="M21.0042 20.0037L3.99707 2.99658" stroke="#151625" stroke-width="1.5" stroke-linecap="round" stroke-linejoin="round"/>
</svg>
