<svg width="201" height="40" viewBox="0 0 201 40" fill="white" xmlns="http://www.w3.org/2000/svg">
<path fill-rule="evenodd" clip-rule="evenodd" d="M2.64474 20C2.64474 10.4267 10.3409 2.66667 19.8355 2.66667C29.3301 2.66667 37.0263 10.4267 37.0263 20C37.0263 24.9158 34.9971 29.3534 31.7371 32.5078V10.9278L19.8358 18.4278L7.93447 10.9278V32.5084C4.67419 29.3539 2.64474 24.916 2.64474 20ZM29.0924 25.0706V34.6085C26.4204 36.3334 23.2438 37.3333 19.8355 37.3333C16.4275 37.3333 13.2511 36.3335 10.5792 34.6089V25.0722L19.8354 30.905L29.0924 25.0706ZM29.0924 21.9245V15.7385L19.8358 21.5718L10.5792 15.7385V21.9275L19.8354 27.7596L29.0924 21.9245ZM19.8355 0C8.88103 0 0 8.95467 0 20C0 31.0453 8.88103 40 19.8355 40C30.79 40 39.6711 31.0453 39.6711 20C39.6711 8.95467 30.79 0 19.8355 0ZM56.3205 12.4853H61.0109L63.5366 17H63.657L66.2104 12.4853H70.8691L66.2713 20.2427L71.0503 28H66.2713L63.6543 23.3947H63.5353L60.9197 28H56.171L60.8892 20.2427L56.3205 12.4853ZM72.6689 28V12.4853H77.8684L81.4455 21.272H81.6253L85.2023 12.4853H90.4005V28H86.3144V19.0307H86.1928L82.7678 27.8787H80.3029L76.8767 18.9693H76.7563V28H72.6689ZM96.5588 28H92.3814V12.4853H99.0237C102.443 12.4853 104.735 14.4547 104.735 17.7573C104.735 19.9093 103.758 21.4173 102.119 22.2133L105.245 28H100.707L98.0002 22.88H96.5588V28ZM96.5588 15.848V19.6067H96.5601H98.0306C99.4958 19.6067 100.375 19.084 100.375 17.7573C100.375 16.424 99.4958 15.848 98.0306 15.848H96.5588ZM114.417 28H110.421L105.883 12.484H110.54L112.644 22.0307H112.763L115.258 12.4853H118.927L121.421 22.0613H121.541L123.645 12.4853H128.302L123.765 28H119.768L117.152 19.3333H117.033L114.417 28ZM132.741 25.0307L131.854 28H127.348L132.425 12.4853H138.135L143.215 28H138.707L137.821 25.0307H132.741ZM133.689 21.8787H136.874L135.341 16.7573H135.221L133.689 21.8787ZM155.096 28H144.697V12.4853H148.874V24.6067H155.096V28ZM167.183 28H156.785V12.4853H160.962V24.6067H167.183V28ZM179.931 28H168.871V12.4853H179.962V15.8787H173.049V18.5453H179.391V21.94H173.049V24.6067H179.931V28ZM186.24 15.88H181.612V15.8773V12.484H194.987V15.88H190.358V28H186.24V15.88Z" />
</svg>
