<svg width="30" height="30" viewBox="0 0 30 30" fill="none" xmlns="http://www.w3.org/2000/svg">
<path fill-rule="evenodd" clip-rule="evenodd" d="M15 2C7.82 2 2 7.82 2 15C2 18.6869 3.53463 22.0152 6 24.3811V8.1958L15 13.8208L24 8.1958V24.3811C26.4654 22.0152 28 18.6869 28 15C28 7.82 22.18 2 15 2ZM15 28C12.4227 28 10.0206 27.2501 8 25.9565V18.8037L15.0007 23.1789L22 18.8037V25.9565C19.9794 27.2501 17.5773 28 15 28ZM22 16.4442L15.0007 20.8199L8 16.4452V11.8038L15 16.1788L22 11.8038V16.4442ZM0 15C0 6.716 6.716 0 15 0C23.284 0 30 6.716 30 15C30 23.284 23.284 30 15 30C6.716 30 0 23.284 0 15Z" fill="white"/>
</svg>
