<svg width="24" height="24" viewBox="0 0 24 24" fill="none" xmlns="http://www.w3.org/2000/svg">
<path fill-rule="evenodd" clip-rule="evenodd" d="M22.7073 2.70726L23.4144 2.00015L22.0002 0.585938L21.293 1.29304L18.3289 4.2572C16.605 2.84652 14.4014 2.00015 12.0002 2.00015C9.59889 2.00015 7.3953 2.84652 5.67142 4.25721L2.70726 1.29304L2.00015 0.585938L0.58594 2.00015L1.29305 2.70726L4.25721 5.67142C2.84652 7.39529 2.00016 9.59888 2.00016 12.0002C2.00016 14.4014 2.84652 16.605 4.25721 18.3289L1.29304 21.293L0.585938 22.0002L2.00015 23.4144L2.70726 22.7073L5.67142 19.7431C7.39529 21.1538 9.59889 22.0002 12.0002 22.0002C14.4014 22.0002 16.605 21.1538 18.3289 19.7431L21.293 22.7073L22.0002 23.4144L23.4144 22.0002L22.7073 21.293L19.7431 18.3289C21.1538 16.605 22.0002 14.4014 22.0002 12.0002C22.0002 9.59888 21.1538 7.39529 19.7431 5.67142L22.7073 2.70726ZM16.9058 5.68029C15.5511 4.62723 13.8489 4.00015 12.0002 4.00015C10.1514 4.00015 8.4492 4.62723 7.09451 5.6803L12.0002 10.5859L16.9058 5.68029ZM13.4144 12.0002L18.32 7.0945C19.3731 8.44919 20.0002 10.1514 20.0002 12.0002C20.0002 13.8489 19.3731 15.5511 18.32 16.9058L13.4144 12.0002ZM10.5859 12.0001L5.6803 7.09451C4.62724 8.44919 4.00016 10.1514 4.00016 12.0002C4.00016 13.8489 4.62724 15.5511 5.6803 16.9058L10.5859 12.0001ZM7.09451 18.32L12.0002 13.4144L16.9058 18.32C15.5511 19.3731 13.8489 20.0002 12.0002 20.0002C10.1514 20.0002 8.4492 19.3731 7.09451 18.32Z" fill="#323232"/>
</svg>
